<?xml version="1.0" encoding="UTF-8"?>
<svg width="44px" height="24px" viewBox="0 0 44 24" version="1.1" xmlns="http://www.w3.org/2000/svg" xmlns:xlink="http://www.w3.org/1999/xlink">
    <title>logo</title>
    <g id="Page-1" stroke="none" stroke-width="1" fill="none" fill-rule="evenodd">
        <path d="M12.7397307,3.44992555 C12.1235075,3.13870171 11.4394737,3.10671521 10.8316898,3.30659047 C10.2239058,3.50646573 9.69237171,3.93820275 9.38114787,4.55442595 L1.64451513,19.8729588 C1.46801196,20.2224351 1.37605677,20.6084811 1.37605677,21 C1.37605677,21.6903559 1.6558788,22.3153559 2.10828981,22.767767 C2.56070083,23.220178 3.18570083,23.5 3.87605677,23.5 L23.0242228,23.5 C23.5623774,23.5 24.0861669,23.3263459 24.5177346,23.0048497 C25.0713586,22.5924278 25.405404,21.9946494 25.497938,21.3615705 C25.5904719,20.7284916 25.4414944,20.0601122 25.0290725,19.5064882 L13.6175392,4.18795538 C13.3860785,3.87724878 13.0855695,3.62459158 12.7397307,3.44992555 Z" id="Triangle" stroke="#0A0D0F" fill="#0A0D0F" transform="translate(14.000000, 12.000000) scale(-1, 1) rotate(-180.000000) translate(-14.000000, -12.000000) "></path>
        <path d="M28.7397307,3.44992555 C28.1235075,3.13870171 27.4394737,3.10671521 26.8316898,3.30659047 C26.2239058,3.50646573 25.6923717,3.93820275 25.3811479,4.55442595 L17.6445151,19.8729588 C17.468012,20.2224351 17.3760568,20.6084811 17.3760568,21 C17.3760568,21.6903559 17.6558788,22.3153559 18.1082898,22.767767 C18.5607008,23.220178 19.1857008,23.5 19.8760568,23.5 L39.0242228,23.5 C39.5623774,23.5 40.0861669,23.3263459 40.5177346,23.0048497 C41.0713586,22.5924278 41.405404,21.9946494 41.497938,21.3615705 C41.5904719,20.7284916 41.4414944,20.0601122 41.0290725,19.5064882 L29.6175392,4.18795538 C29.3860785,3.87724878 29.0855695,3.62459158 28.7397307,3.44992555 Z" id="Triangle" stroke="#0A0D0F" fill="#0A0D0F" transform="translate(30.000000, 12.000000) scale(1, -1) rotate(-180.000000) translate(-30.000000, -12.000000) "></path>
    </g>
</svg>