<?xml version="1.0" encoding="UTF-8"?>
<svg width="600px" height="600px" viewBox="0 0 600 600" version="1.1" xmlns="http://www.w3.org/2000/svg" xmlns:xlink="http://www.w3.org/1999/xlink">
    <title>logo</title>
    <g id="Page-1" stroke="none" stroke-width="1" fill="none" fill-rule="evenodd">
        <g id="Logo" transform="translate(300.000000, 300.000000) rotate(-360.000000) translate(-300.000000, -300.000000) translate(20.000000, 130.000000)" fill="#0A0D0F" stroke="#0A0D0F" stroke-width="13">
            <path d="M165.46868,52.6529241 C156.550818,48.5820982 146.827182,48.5113345 138.315304,51.6877426 C129.803427,54.8641507 122.503308,61.2877306 118.432482,70.2055919 L33.0466791,257.258235 C30.9343157,261.885739 29.8411116,266.913167 29.8411116,272 C29.8411116,281.803054 33.8145844,290.678054 40.2388209,297.102291 C46.6630573,303.526527 55.5380573,307.5 65.3411116,307.5 L279.200662,307.5 C286.376591,307.5 293.384051,305.325297 299.299161,301.26261 C307.379807,295.712563 312.445859,287.41261 314.104237,278.480006 C315.762615,269.547402 314.01332,259.982148 308.463273,251.901502 L179.989525,64.8488584 C176.344655,59.5420726 171.325288,55.3263489 165.46868,52.6529241 Z" id="Triangle" transform="translate(179.500000, 157.000000) scale(-1, 1) rotate(-180.000000) translate(-179.500000, -157.000000) "></path>
            <path d="M366.46868,78.6529241 C357.550818,74.5820982 347.827182,74.5113345 339.315304,77.6877426 C330.803427,80.8641507 323.503308,87.2877306 319.432482,96.2055919 L234.046679,283.258235 C231.934316,287.885739 230.841112,292.913167 230.841112,298 C230.841112,307.803054 234.814584,316.678054 241.238821,323.102291 C247.663057,329.526527 256.538057,333.5 266.341112,333.5 L480.200662,333.5 C487.376591,333.5 494.384051,331.325297 500.299161,327.26261 C508.379807,321.712563 513.445859,313.41261 515.104237,304.480006 C516.762615,295.547402 515.01332,285.982148 509.463273,277.901502 L380.989525,90.8488584 C377.344655,85.5420726 372.325288,81.3263489 366.46868,78.6529241 Z" id="Triangle" transform="translate(380.500000, 183.000000) scale(-1, 1) rotate(-360.000000) translate(-380.500000, -183.000000) "></path>
        </g>
    </g>
</svg>