<svg version="1" xmlns="http://www.w3.org/2000/svg" width="933.333" height="933.333" viewBox="0 0 700.000000 700.000000"><path d="M313 1.6c-63.2 6.7-122.1 29.9-172.7 67.8C70.3 121.9 22.5 197.9 6.1 283 1.2 308.4.5 316 .5 350c0 34.7.7 41.8 6.1 69.5 9.2 46.2 28.9 92.1 56.7 131.7 22.6 32.2 52.8 62.6 84.1 84.5 47.8 33.6 98.5 53.5 157.7 61.8 15.3 2.2 58 3.1 74.6 1.6 45.4-4.1 87.2-15.9 127.3-36 68.5-34.4 122.6-88.8 156.5-157.6 20-40.4 30.4-76.1 35.1-120.7 2.2-20.9 1.5-63.3-1.5-82.8-8.1-54.7-26.3-102.4-55.4-146C583.1 68.3 490.4 12.4 385.8 1.5c-18-1.8-55.2-1.8-72.8.1zm54 69.5c27.3 1.7 55.2 7.4 79.6 16.4 24.8 9.1 57.8 27.8 79.4 45.1 10.9 8.8 32.6 30.5 41.4 41.4 16.3 20.4 31.9 47 42 71.6 20.3 49.6 25.4 108.6 14 162.5-11.1 52.7-37.3 100.9-75.9 139.4-48.9 48.9-111.8 77.2-181.3 81.5-109 6.8-213.6-52.7-264.1-150.1-21.4-41.3-31.3-81.9-31.4-128.4 0-22.7 1.2-34.8 5.3-55.5 8.8-43.8 28.2-85.4 56.6-121 8.6-10.8 30.3-32.5 41.4-41.4 21.6-17.3 54.6-36 79.4-45.1 23.2-8.5 53-14.8 77.1-16.4 18.9-1.2 18.5-1.2 36.5 0z"/><path d="M350 349.8V560h7c39.9 0 86.4-16.8 122-44 35.2-27 62.5-68.1 73.9-111.1 5.8-21.9 6.5-28.3 6.5-54.9 0-26.7-.7-33-6.5-55-22.8-86.4-101.3-150.2-190.1-154.7l-12.8-.6v210.1zM257 212c-45.2 8.1-84.3 37.8-103.9 79.1C144 310 140 328.3 140 350c0 32.8 10.2 61.5 31 87.4 24.4 30.3 63.1 50.2 101.8 52.3l11.2.6-.2-139.9-.3-139.9-8-.2c-4.4-.1-12.7.7-18.5 1.7z"/></svg>